<svg width="846" height="159" viewBox="0 0 846 159" fill="none" xmlns="http://www.w3.org/2000/svg">
<g opacity="0.2">
<path d="M120.17 0L49.858 261.222H0L70.3125 0H120.17Z" fill="#DB38B9"/>
<path d="M243.803 0L173.491 261.222H123.633L193.945 0H243.803Z" fill="#DB38B9"/>
<path d="M367.436 0L297.124 261.222H247.266L317.578 0H367.436Z" fill="#DB38B9"/>
<path d="M491.069 0L420.756 261.222H370.898L441.211 0H491.069Z" fill="#DB38B9"/>
<path d="M614.702 0L544.389 261.222H494.531L564.844 0H614.702Z" fill="#DB38B9"/>
<path d="M738.335 0L668.022 261.222H618.164L688.477 0H738.335Z" fill="#DB38B9"/>
<path d="M861.967 0L791.655 261.222H741.797L812.109 0H861.967Z" fill="#DB38B9"/>
<path d="M985.6 0L915.288 261.222H865.43L935.742 0H985.6Z" fill="#DB38B9"/>
<path d="M1109.23 0L1038.92 261.222H989.062L1059.38 0H1109.23Z" fill="#DB38B9"/>
<path d="M1232.87 0L1162.55 261.222H1112.7L1183.01 0H1232.87Z" fill="#DB38B9"/>
</g>
</svg>
