<svg width="375" height="33" viewBox="0 0 375 33" fill="none" xmlns="http://www.w3.org/2000/svg">
<g opacity="0.2">
<path d="M33.1705 0L-37.142 261.222H-87L-16.6875 0H33.1705Z" fill="#DB38B9"/>
<path d="M156.803 0L86.4908 261.222H36.6328L106.945 0H156.803Z" fill="#DB38B9"/>
<path d="M280.436 0L210.124 261.222H160.266L230.578 0H280.436Z" fill="#DB38B9"/>
<path d="M404.069 0L333.756 261.222H283.898L354.211 0H404.069Z" fill="#DB38B9"/>
<path d="M527.702 0L457.389 261.222H407.531L477.844 0H527.702Z" fill="#DB38B9"/>
<path d="M651.335 0L581.022 261.222H531.164L601.477 0H651.335Z" fill="#DB38B9"/>
<path d="M774.967 0L704.655 261.222H654.797L725.109 0H774.967Z" fill="#DB38B9"/>
<path d="M898.6 0L828.288 261.222H778.43L848.742 0H898.6Z" fill="#DB38B9"/>
<path d="M1022.23 0L951.92 261.222H902.062L972.375 0H1022.23Z" fill="#DB38B9"/>
<path d="M1145.87 0L1075.55 261.222H1025.7L1096.01 0H1145.87Z" fill="#DB38B9"/>
</g>
</svg>
