<svg width="750" height="262" viewBox="0 0 750 262" fill="none" xmlns="http://www.w3.org/2000/svg">
<g opacity="0.2">
<path d="M-362.83 0L-433.142 261.222H-483L-412.688 0H-362.83Z" fill="#DB38B9"/>
<path d="M-239.197 0L-309.509 261.222H-359.367L-289.055 0H-239.197Z" fill="#DB38B9"/>
<path d="M-115.564 0L-185.876 261.222H-235.734L-165.422 0H-115.564Z" fill="#DB38B9"/>
<path d="M8.06888 0L-62.2436 261.222H-112.102L-41.7891 0H8.06888Z" fill="#DB38B9"/>
<path d="M131.702 0L61.3892 261.222H11.5312L81.8438 0H131.702Z" fill="#DB38B9"/>
<path d="M255.335 0L185.022 261.222H135.164L205.477 0H255.335Z" fill="#DB38B9"/>
<path d="M378.967 0L308.655 261.222H258.797L329.109 0H378.967Z" fill="#DB38B9"/>
<path d="M502.6 0L432.288 261.222H382.43L452.742 0H502.6Z" fill="#DB38B9"/>
<path d="M626.233 0L555.92 261.222H506.062L576.375 0H626.233Z" fill="#DB38B9"/>
<path d="M749.866 0L679.553 261.222H629.695L700.008 0H749.866Z" fill="#DB38B9"/>
</g>
</svg>
