<svg width="375" height="262" viewBox="0 0 375 262" fill="none" xmlns="http://www.w3.org/2000/svg">
<g opacity="0.2">
<path d="M-728.83 0L-799.142 261.222H-849L-778.688 0H-728.83Z" fill="#DB38B9"/>
<path d="M-605.197 0L-675.509 261.222H-725.367L-655.055 0H-605.197Z" fill="#DB38B9"/>
<path d="M-481.564 0L-551.876 261.222H-601.734L-531.422 0H-481.564Z" fill="#DB38B9"/>
<path d="M-357.931 0L-428.244 261.222H-478.102L-407.789 0H-357.931Z" fill="#DB38B9"/>
<path d="M-234.298 0L-304.611 261.222H-354.469L-284.156 0H-234.298Z" fill="#DB38B9"/>
<path d="M-110.665 0L-180.978 261.222H-230.836L-160.523 0H-110.665Z" fill="#DB38B9"/>
<path d="M12.9673 0L-57.3452 261.222H-107.203L-36.8906 0H12.9673Z" fill="#DB38B9"/>
<path d="M136.6 0L66.2877 261.222H16.4297L86.7422 0H136.6Z" fill="#DB38B9"/>
<path d="M260.233 0L189.92 261.222H140.062L210.375 0H260.233Z" fill="#DB38B9"/>
<path d="M383.866 0L313.553 261.222H263.695L334.008 0H383.866Z" fill="#DB38B9"/>
</g>
</svg>
