<svg width="34" height="272" viewBox="0 0 34 272" fill="none" xmlns="http://www.w3.org/2000/svg">
<path d="M9.02734 8H11.5473L3.35734 32.6H0.837344L9.02734 8ZM20.0268 25.94V13.28C20.0268 12.92 19.9668 12.69 19.8468 12.59C19.7268 12.47 19.4868 12.41 19.1268 12.41H17.5068C17.1468 12.41 16.9068 12.47 16.7868 12.59C16.6868 12.69 16.6368 12.92 16.6368 13.28V25.94C16.6368 26.3 16.6868 26.54 16.7868 26.66C16.9068 26.76 17.1468 26.81 17.5068 26.81H19.1268C19.4868 26.81 19.7268 26.76 19.8468 26.66C19.9668 26.54 20.0268 26.3 20.0268 25.94ZM22.7568 12.86V26.36C22.7568 28.12 21.8268 29 19.9668 29H16.6968C14.8168 29 13.8768 28.12 13.8768 26.36V12.86C13.8768 11.1 14.8168 10.22 16.6968 10.22H19.9668C21.8268 10.22 22.7568 11.1 22.7568 12.86ZM27.6063 13.28V16.34H24.9063V12.86C24.9063 11.1 25.8363 10.22 27.6963 10.22H30.2763C32.1563 10.22 33.0963 11.1 33.0963 12.86V14.75C33.0963 16.15 32.7463 17.52 32.0463 18.86L27.9963 26.81H33.2163V29H24.9363V26.9L29.5263 18.26C30.0863 17.2 30.3663 16 30.3663 14.66V13.28C30.3663 12.92 30.3063 12.69 30.1863 12.59C30.0863 12.47 29.8463 12.41 29.4663 12.41H28.5063C28.1463 12.41 27.9063 12.47 27.7863 12.59C27.6663 12.69 27.6063 12.92 27.6063 13.28Z" fill="white"/>
<path d="M15 271L15 50" stroke="white" stroke-width="2" stroke-linecap="round"/>
</svg>
