<svg width="8" height="15" viewBox="0 0 8 15" fill="none" xmlns="http://www.w3.org/2000/svg">
<path d="M8 6.42857L6 6.42857L6 8.57143L8 8.57143L8 6.42857Z" fill="#D9D9D9"/>
<path d="M6 4.28571L4 4.28571L4 6.42857L6 6.42857L6 4.28571Z" fill="#D9D9D9"/>
<path d="M4 2.14286L2 2.14286L2 4.28571L4 4.28571L4 2.14286Z" fill="#D9D9D9"/>
<path d="M2 5.24537e-07L0 6.99382e-07L1.87335e-07 2.14286L2 2.14286L2 5.24537e-07Z" fill="#D9D9D9"/>
<path d="M1.12401e-06 12.8571L2 12.8571L2 15L1.31134e-06 15L1.12401e-06 12.8571Z" fill="#D9D9D9"/>
<path d="M2 10.7143L4 10.7143L4 12.8571L2 12.8571L2 10.7143Z" fill="#D9D9D9"/>
<path d="M4 8.57143L6 8.57143L6 10.7143L4 10.7143L4 8.57143Z" fill="#D9D9D9"/>
</svg>
