<svg  viewBox="0 0 32 25" fill="none" xmlns="http://www.w3.org/2000/svg">
<path d="M27.5652 3.16148C24.7962 0.900519 20.4158 0.517258 20.2283 0.503471C19.9375 0.478656 19.6603 0.644093 19.5408 0.917063C19.5299 0.933606 19.4348 1.15695 19.3288 1.50436C21.1603 1.81869 23.4103 2.45011 25.4457 3.73224C25.7717 3.93627 25.8723 4.37192 25.6712 4.7028C25.538 4.92062 25.3125 5.03918 25.0788 5.03918C24.9538 5.03918 24.8261 5.00334 24.712 4.93165C21.212 2.72859 16.8424 2.6183 16 2.6183C15.1576 2.6183 10.7853 2.72859 7.28804 4.93165C6.96196 5.13844 6.53261 5.03643 6.33152 4.70555C6.12772 4.37192 6.22826 3.93903 6.55435 3.73224C8.58967 2.45286 10.8397 1.81869 12.6712 1.50712C12.5652 1.15695 12.4701 0.936364 12.462 0.917063C12.3397 0.644093 12.0652 0.473142 11.7717 0.503471C11.5842 0.517258 7.2038 0.900518 4.39674 3.19181C2.93207 4.56769 0 12.6079 0 19.559C0 19.6831 0.0326087 19.8016 0.0923916 19.9091C2.11413 23.5157 7.63315 24.4586 8.8913 24.5C8.89674 24.5 8.90489 24.5 8.91304 24.5C9.13587 24.5 9.34511 24.3925 9.47554 24.2105L10.7473 22.4348C7.31522 21.5359 5.5625 20.0084 5.46196 19.9174C5.17391 19.661 5.14674 19.2143 5.40217 18.922C5.65489 18.6298 6.09511 18.6022 6.38315 18.8586C6.42391 18.8972 9.65217 21.6766 16 21.6766C22.3587 21.6766 25.587 18.8862 25.6196 18.8586C25.9076 18.605 26.3451 18.6298 26.6005 18.9248C26.8533 19.2171 26.8261 19.661 26.538 19.9174C26.4375 20.0084 24.6848 21.5359 21.2527 22.4348L22.5245 24.2105C22.6549 24.3925 22.8641 24.5 23.087 24.5C23.0951 24.5 23.1033 24.5 23.1087 24.5C24.3668 24.4586 29.8859 23.5157 31.9076 19.9091C31.9674 19.8016 32 19.6831 32 19.559C32 12.6079 29.0679 4.56769 27.5652 3.16148ZM11.4783 16.7355C10.1332 16.7355 9.04348 15.4727 9.04348 13.9121C9.04348 12.3515 10.1332 11.0886 11.4783 11.0886C12.8234 11.0886 13.913 12.3515 13.913 13.9121C13.913 15.4727 12.8234 16.7355 11.4783 16.7355ZM20.5217 16.7355C19.1766 16.7355 18.087 15.4727 18.087 13.9121C18.087 12.3515 19.1766 11.0886 20.5217 11.0886C21.8668 11.0886 22.9565 12.3515 22.9565 13.9121C22.9565 15.4727 21.8668 16.7355 20.5217 16.7355Z" fill="white"/>
</svg>
