
<svg  viewBox="0 0 29 29" fill="none" xmlns="http://www.w3.org/2000/svg">
<path d="M14.5 0C6.5042 0 0 6.5042 0 14.5C0 22.4958 6.5042 29 14.5 29C22.4958 29 29 22.4958 29 14.5C29 6.5042 22.4958 0 14.5 0ZM10.7174 8.19565C13.2391 11.3478 11.3478 14.5 11.3478 14.5H6.93478L10.7174 8.19565ZM24.587 17.0217L22.7618 17.934C22.3155 18.1572 21.9763 18.548 21.8187 19.0215C21.2129 20.839 19.512 22.6957 17.5961 22.6957H11.8446C8.9755 22.6957 6.49159 20.0724 5.86935 17.272L5.67391 16.3913H10.7174C10.7174 17.4359 11.5641 18.2826 12.6087 18.2826H14.5V15.7609H12.6087C15.7609 11.3478 11.9783 6.93478 11.9783 6.93478C11.9783 6.93478 13.1118 7.2872 14.5 7.71904V6.30435C14.5 5.95572 14.7818 5.67391 15.1304 5.67391C15.4791 5.67391 15.7609 5.95572 15.7609 6.30435V8.1118C22.6957 12.2304 17.6522 15.7609 17.6522 15.7609H15.7609V18.2826H17.8047C18.1162 18.2826 18.4207 18.1906 18.6798 18.0178L20.1739 17.0217L24.587 15.7609V17.0217Z" fill="white"/>
</svg>
