<svg width="56" height="65" viewBox="0 0 56 65" fill="none" xmlns="http://www.w3.org/2000/svg">
<path d="M24.215 29.8789H12.7373C11.6939 29.9319 9.28602 30.7367 8.00181 33.5326L1.9018 47.4323C1.50049 48.3589 1.11522 50.6411 2.7847 52.3568C3.3733 53.0716 5.08023 54.5013 7.19918 54.5013H27.9874M31.84 29.8789H43.3177C44.3611 29.9319 46.769 30.7367 48.0532 33.5326L54.1532 47.4323C54.3659 47.9234 54.5741 48.7954 54.4742 49.7619M54.4742 49.7619C54.3857 50.619 54.0549 51.5505 53.2703 52.3568C52.6817 53.0716 50.9748 54.5013 48.8558 54.5013H28.0676M54.4742 49.7619V49.5768M54.4742 49.7619V58.3932C54.501 59.9288 53.4469 63 49.0163 63H6.9584C2.52786 63 1.47374 59.9288 1.50049 58.3932V49.5768M45.1637 49.1003H46.9295M23.4462 38.3776C20.9218 39.1776 19.2387 40.6133 19.2387 42.2514C19.2387 44.7618 23.1915 46.7969 28.0676 46.7969C32.9437 46.7969 36.8966 44.7618 36.8966 42.2514C36.8966 40.6133 35.2135 39.1776 32.689 38.3776M27.9874 24.0013V42.2695M38.6624 12.4844C38.6624 18.2747 33.919 22.9688 28.0676 22.9688C22.2163 22.9688 17.4729 18.2747 17.4729 12.4844C17.4729 6.69401 22.2163 2 28.0676 2C33.919 2 38.6624 6.69401 38.6624 12.4844Z" stroke="white" stroke-width="3" stroke-linecap="round"/>
</svg>
