<svg width="375" height="147" viewBox="0 0 375 147" fill="none" xmlns="http://www.w3.org/2000/svg">
<g opacity="0.1">
<path d="M-100.553 0L-142.357 155H-172L-130.196 0H-100.553Z" fill="white"/>
<path d="M-27.0468 0L-68.8511 155H-98.4941L-56.6899 0H-27.0468Z" fill="white"/>
<path d="M46.459 0L4.65475 155H-24.9883L16.816 0H46.459Z" fill="white"/>
<path d="M119.965 0L78.1606 155H48.5176L90.3219 0H119.965Z" fill="white"/>
<path d="M193.471 0L151.666 155H122.023L163.828 0H193.471Z" fill="white"/>
<path d="M266.977 0L225.172 155H195.529L237.334 0H266.977Z" fill="white"/>
<path d="M340.482 0L298.678 155H269.035L310.839 0H340.482Z" fill="white"/>
<path d="M413.988 0L372.184 155H342.541L384.345 0H413.988Z" fill="white"/>
<path d="M487.494 0L445.69 155H416.047L457.851 0H487.494Z" fill="white"/>
<path d="M561 0L519.196 155H489.553L531.357 0H561Z" fill="white"/>
</g>
</svg>
