<svg width="590" height="147" viewBox="0 0 590 147" fill="none" xmlns="http://www.w3.org/2000/svg">
<g opacity="0.1">
<path d="M7.44731 0L-34.357 155H-64L-22.1957 0H7.44731Z" fill="white"/>
<path d="M80.9532 0L39.1489 155H9.50585L51.3101 0H80.9532Z" fill="white"/>
<path d="M154.459 0L112.655 155H83.0117L124.816 0H154.459Z" fill="white"/>
<path d="M227.965 0L186.161 155H156.518L198.322 0H227.965Z" fill="white"/>
<path d="M301.471 0L259.666 155H230.023L271.828 0H301.471Z" fill="white"/>
<path d="M374.977 0L333.172 155H303.529L345.334 0H374.977Z" fill="white"/>
<path d="M448.482 0L406.678 155H377.035L418.839 0H448.482Z" fill="white"/>
<path d="M521.988 0L480.184 155H450.541L492.345 0H521.988Z" fill="white"/>
<path d="M595.494 0L553.69 155H524.047L565.851 0H595.494Z" fill="white"/>
<path d="M669 0L627.196 155H597.553L639.357 0H669Z" fill="white"/>
</g>
</svg>
