<svg width="362" height="233" viewBox="0 0 362 233" fill="none" xmlns="http://www.w3.org/2000/svg">
<path d="M71.112 211H55.392L53.034 172.748H44.257L42.03 211H26.048L34.694 113.012C34.956 109.431 36.7027 107.641 39.934 107.641H56.833C60.1517 107.641 62.0293 109.431 62.466 113.012L71.112 211ZM48.318 121.92C47.6193 121.92 47.27 122.226 47.27 122.837L45.043 158.993H52.248L50.152 122.837C50.152 122.226 49.8027 121.92 49.104 121.92H48.318ZM117.922 207.07C117.922 209.69 116.699 211 114.254 211H107.835C105.302 211 103.774 209.777 103.25 207.332L90.805 149.823C90.6303 149.299 90.3683 149.037 90.019 149.037H89.495C89.1457 149.037 88.971 149.299 88.971 149.823C88.971 150.522 88.971 151.439 88.971 152.574C89.0583 153.709 89.102 155.369 89.102 157.552C89.102 159.648 89.102 162.399 89.102 165.805C89.1893 169.124 89.233 173.316 89.233 178.381V211H75.216V111.702C75.216 108.995 76.4823 107.641 79.015 107.641H87.661C90.1937 107.641 91.722 108.864 92.246 111.309L102.595 162.923C102.857 163.796 103.206 164.233 103.643 164.233H104.167C104.516 164.233 104.691 163.971 104.691 163.447C104.691 162.923 104.647 162.268 104.56 161.482C104.56 160.696 104.56 159.43 104.56 157.683C104.56 155.849 104.516 153.404 104.429 150.347C104.429 147.203 104.429 143.055 104.429 137.902V107.641H117.922V207.07ZM144.792 196.852C147.762 196.852 149.246 194.931 149.246 191.088V127.684C149.246 123.841 147.762 121.92 144.792 121.92H139.552C138.941 121.92 138.635 122.226 138.635 122.837V195.804C138.635 196.503 138.941 196.852 139.552 196.852H144.792ZM164.311 191.219C164.311 204.406 158.766 211 147.674 211H128.155C125.186 211 123.701 209.515 123.701 206.546V112.095C123.701 109.126 125.186 107.641 128.155 107.641H147.674C158.766 107.641 164.311 114.235 164.311 127.422V191.219ZM217.059 211H191.645C187.628 211 185.619 208.991 185.619 204.974V113.667C185.619 109.65 187.628 107.641 191.645 107.641H217.059V121.92H201.863C200.99 121.92 200.553 122.4 200.553 123.361V151.788H217.059V165.543H200.553V195.411C200.553 196.372 200.99 196.852 201.863 196.852H217.059V211ZM265.693 211H249.973L247.615 172.748H238.838L236.611 211H220.629L229.275 113.012C229.537 109.431 231.284 107.641 234.515 107.641H251.414C254.733 107.641 256.61 109.431 257.047 113.012L265.693 211ZM242.899 121.92C242.2 121.92 241.851 122.226 241.851 122.837L239.624 158.993H246.829L244.733 122.837C244.733 122.226 244.384 121.92 243.685 121.92H242.899ZM310.407 207.201C310.407 208.773 310.582 210.039 310.931 211H295.866C295.517 210.301 295.342 209.297 295.342 207.987V173.141C295.342 170.084 294.032 168.556 291.412 168.556H284.731V211H269.797V113.667C269.797 109.65 271.762 107.641 275.692 107.641H297.307C305.778 107.641 310.014 113.274 310.014 124.54V150.347C310.014 156.024 308.049 159.91 304.119 162.006C308.311 164.102 310.407 168.207 310.407 174.32V207.201ZM291.412 154.67C293.945 154.67 295.211 153.142 295.211 150.085V126.767C295.211 123.536 294.119 121.92 291.936 121.92H286.041C285.168 121.92 284.731 122.4 284.731 123.361V154.67H291.412ZM358.814 207.07C358.814 209.69 357.591 211 355.146 211H348.727C346.194 211 344.666 209.777 344.142 207.332L331.697 149.823C331.522 149.299 331.26 149.037 330.911 149.037H330.387C330.037 149.037 329.863 149.299 329.863 149.823C329.863 150.522 329.863 151.439 329.863 152.574C329.95 153.709 329.994 155.369 329.994 157.552C329.994 159.648 329.994 162.399 329.994 165.805C330.081 169.124 330.125 173.316 330.125 178.381V211H316.108V111.702C316.108 108.995 317.374 107.641 319.907 107.641H328.553C331.085 107.641 332.614 108.864 333.138 111.309L343.487 162.923C343.749 163.796 344.098 164.233 344.535 164.233H345.059C345.408 164.233 345.583 163.971 345.583 163.447C345.583 162.923 345.539 162.268 345.452 161.482C345.452 160.696 345.452 159.43 345.452 157.683C345.452 155.849 345.408 153.404 345.321 150.347C345.321 147.203 345.321 143.055 345.321 137.902V107.641H358.814V207.07Z" fill="white"/>
<path d="M21.0756 79.32H14.5956V66.68H2.27563V60.2H14.5956V47.64H21.0756V60.2H33.3956V66.68H21.0756V79.32ZM46.005 95H36.885V35.56C36.885 33.1067 38.085 31.88 40.485 31.88H53.205C58.4317 31.88 61.045 35.32 61.045 42.2V60.36C61.045 67.1867 58.4317 70.6 53.205 70.6H46.005V95ZM50.325 62.28C51.6583 62.28 52.325 61.2933 52.325 59.32V43.56C52.325 41.5867 51.6583 40.6 50.325 40.6H46.805C46.2717 40.6 46.005 40.8933 46.005 41.48V62.28H50.325ZM81.9906 95H67.7506C65.3506 95 64.1506 93.7733 64.1506 91.32V31.88H73.2706V85.48C73.2706 86.0667 73.5373 86.36 74.0706 86.36H81.9906V95ZM111.019 95H101.419L99.9794 71.64H94.6194L93.2594 95H83.4994L88.7794 35.16C88.9394 32.9733 90.006 31.88 91.9794 31.88H102.299C104.326 31.88 105.473 32.9733 105.739 35.16L111.019 95ZM97.0994 40.6C96.6727 40.6 96.4594 40.7867 96.4594 41.16L95.0994 63.24H99.4994L98.2194 41.16C98.2194 40.7867 98.006 40.6 97.5794 40.6H97.0994ZM127.519 95H118.239V70.6C115.359 70.6 113.332 69.8533 112.159 68.36C111.039 66.8667 110.479 64.6 110.479 61.56V31.88H119.599V59.88C119.599 61.6933 120.212 62.6 121.439 62.6H124.319C125.492 62.6 126.079 61.6933 126.079 59.88V31.88H135.279V61.56C135.279 64.6 134.692 66.8667 133.519 68.36C132.345 69.8533 130.345 70.6 127.519 70.6V95Z" fill="#DB38B9"/>
<path d="M177.95 32.68H175.52L181.4 5.65H183.86L177.95 32.68ZM193.829 26.47C193.829 29.49 192.559 31 190.019 31H188.339C185.799 31 184.529 29.49 184.529 26.47V11.86C184.529 8.84 185.799 7.33 188.339 7.33H190.019C192.559 7.33 193.829 8.84 193.829 11.86V26.47ZM189.419 27.76C190.059 27.76 190.379 27.32 190.379 26.44V11.92C190.379 11.04 190.059 10.6 189.419 10.6H188.909C188.269 10.6 187.949 11.04 187.949 11.92V26.44C187.949 27.32 188.269 27.76 188.909 27.76H189.419ZM202.275 26.47C202.275 29.49 201.005 31 198.465 31H194.925V27.76H197.865C198.545 27.76 198.885 27.32 198.885 26.44V21.58C198.885 20.88 198.565 20.53 197.925 20.53H195.075V17.38H197.925C198.565 17.38 198.885 17.02 198.885 16.3V11.92C198.885 11.04 198.545 10.6 197.865 10.6H194.925V7.33H198.465C200.965 7.33 202.215 8.84 202.215 11.86V16.36C202.215 17.66 201.775 18.54 200.895 19C201.815 19.52 202.275 20.47 202.275 21.85V26.47Z" fill="white"/>
<path d="M267.56 79.32H261.08V66.68H248.76V60.2H261.08V47.64H267.56V60.2H279.88V66.68H267.56V79.32ZM296.249 86.36C298.063 86.36 298.969 85.1867 298.969 82.84V44.12C298.969 41.7733 298.063 40.6 296.249 40.6H293.049C292.676 40.6 292.489 40.7867 292.489 41.16V85.72C292.489 86.1467 292.676 86.36 293.049 86.36H296.249ZM308.169 82.92C308.169 90.9733 304.783 95 298.009 95H286.089C284.276 95 283.369 94.0933 283.369 92.28V34.6C283.369 32.7867 284.276 31.88 286.089 31.88H298.009C304.783 31.88 308.169 35.9067 308.169 43.96V82.92ZM330.851 95H315.331C312.877 95 311.651 93.7733 311.651 91.32V35.56C311.651 33.1067 312.877 31.88 315.331 31.88H330.851V40.6H321.571C321.037 40.6 320.771 40.8933 320.771 41.48V58.84H330.851V67.24H320.771V85.48C320.771 86.0667 321.037 86.36 321.571 86.36H330.851V95ZM355.271 91.72C355.057 93.9067 353.991 95 352.071 95H341.831C339.644 95 338.471 93.9067 338.311 91.72L333.031 31.88H342.711L345.991 85.4C345.991 85.7733 346.151 85.96 346.471 85.96H347.031C347.404 85.96 347.591 85.7733 347.591 85.4L350.871 31.88H360.551L355.271 91.72Z" fill="black"/>
</svg>
