<svg width="26" height="26" viewBox="0 0 26 26" fill="none" xmlns="http://www.w3.org/2000/svg">
<path d="M15.6 2.27299e-07V5.2H10.4V0L15.6 2.27299e-07Z" fill="#00FFC2"/>
<path d="M10.4 5.2L10.4 10.4H5.2V5.2H10.4Z" fill="#00FFC2"/>
<path d="M5.2 10.4L5.2 15.6H0L2.27299e-07 10.4H5.2Z" fill="#00FFC2"/>
<path d="M10.4 15.6V20.8H5.2V15.6H10.4Z" fill="#00FFC2"/>
<path d="M15.6 20.8V26H10.4V20.8H15.6Z" fill="#00FFC2"/>
<path d="M10.4 0V5.2H15.6V2.27299e-07L10.4 0Z" fill="#00FFC2"/>
<path d="M15.6 5.2V10.4H20.8V5.2H15.6Z" fill="#00FFC2"/>
<path d="M20.8 10.4V15.6H26V10.4H20.8Z" fill="#00FFC2"/>
<path d="M15.6 15.6L15.6 20.8H20.8V15.6H15.6Z" fill="#00FFC2"/>
<path d="M10.4 20.8V26H15.6V20.8H10.4Z" fill="#00FFC2"/>
</svg>
