<svg width="16" height="15" viewBox="0 0 16 15" fill="none" xmlns="http://www.w3.org/2000/svg">
<path d="M9.5 1.31134e-07V3H6.5V0L9.5 1.31134e-07Z" fill="#FF00C7"/>
<path d="M6.5 3L6.5 6H3.5V3L6.5 3Z" fill="#FF00C7"/>
<path d="M3.5 6L3.5 9H0.5L0.5 6L3.5 6Z" fill="#FF00C7"/>
<path d="M6.5 9V12H3.5V9H6.5Z" fill="#FF00C7"/>
<path d="M9.5 12V15H6.5L6.5 12H9.5Z" fill="#FF00C7"/>
<path d="M6.5 0V3H9.5V1.31134e-07L6.5 0Z" fill="#FF00C7"/>
<path d="M9.5 3V6H12.5L12.5 3L9.5 3Z" fill="#FF00C7"/>
<path d="M12.5 6V9H15.5V6L12.5 6Z" fill="#FF00C7"/>
<path d="M9.5 9L9.5 12H12.5V9H9.5Z" fill="#FF00C7"/>
<path d="M6.5 12L6.5 15H9.5V12H6.5Z" fill="#FF00C7"/>
</svg>
