<svg width="676" height="331" viewBox="0 0 676 331" fill="none" xmlns="http://www.w3.org/2000/svg">
<path opacity="0.5" d="M377 0L400 0L448 50H425L377 0Z" fill="#D9D9D9"/>
<path opacity="0.5" d="M246 281L269 281L317 331H294L246 281Z" fill="#D9D9D9"/>
<path opacity="0.5" d="M347 0L370 0L418 50H395L347 0Z" fill="#D9D9D9"/>
<path opacity="0.5" d="M216 281L239 281L287 331H264L216 281Z" fill="#D9D9D9"/>
<path opacity="0.5" d="M317 0L340 0L388 50H365L317 0Z" fill="#D9D9D9"/>
<path opacity="0.5" d="M186 281L209 281L257 331H234L186 281Z" fill="#D9D9D9"/>
<g filter="url(#filter0_b_47_68)">
<path d="M233.5 18H103.5C82.237 18 65 35.237 65 56.5V307.5L82.5 325H177.5L195 307.5H333.5L351 325H578L616.5 286.5V56.5L578 18H470.5L497 44.5H467L456.5 34H351L340.5 44.5H260L233.5 18Z" fill="#1B3A48" fill-opacity="0.56"/>
<path d="M233.5 18H103.5C82.237 18 65 35.237 65 56.5V307.5L82.5 325H177.5L195 307.5H333.5L351 325H578L616.5 286.5V56.5L578 18H470.5L497 44.5H467L456.5 34H351L340.5 44.5H260L233.5 18Z" fill="url(#paint0_linear_47_68)" fill-opacity="0.4"/>
<path d="M233.5 18H103.5C82.237 18 65 35.237 65 56.5V307.5L82.5 325H177.5L195 307.5H333.5L351 325H578L616.5 286.5V56.5L578 18H470.5L497 44.5H467L456.5 34H351L340.5 44.5H260L233.5 18Z" stroke="url(#paint1_linear_47_68)" stroke-width="2"/>
<path d="M233.5 18H103.5C82.237 18 65 35.237 65 56.5V307.5L82.5 325H177.5L195 307.5H333.5L351 325H578L616.5 286.5V56.5L578 18H470.5L497 44.5H467L456.5 34H351L340.5 44.5H260L233.5 18Z" stroke="white" stroke-opacity="0.2" stroke-width="2"/>
</g>
<mask id="mask0_47_68" style="mask-type:alpha" maskUnits="userSpaceOnUse" x="64" y="17" width="554" height="309">
<path d="M103.5 18L65 56.5V307.5L82.5 325H177.5L195 307.5H333.5L351 325H578L616.5 286.5V56.5L578 18H470.5L497 44.5H467L456.5 34H351L340.5 44.5H260L233.5 18H103.5Z" fill="#1B3A48" fill-opacity="0.56"/>
<path d="M103.5 18L65 56.5V307.5L82.5 325H177.5L195 307.5H333.5L351 325H578L616.5 286.5V56.5L578 18H470.5L497 44.5H467L456.5 34H351L340.5 44.5H260L233.5 18H103.5Z" fill="url(#paint2_linear_47_68)" fill-opacity="0.4"/>
<path d="M103.5 18L65 56.5V307.5L82.5 325H177.5L195 307.5H333.5L351 325H578L616.5 286.5V56.5L578 18H470.5L497 44.5H467L456.5 34H351L340.5 44.5H260L233.5 18H103.5Z" stroke="url(#paint3_linear_47_68)" stroke-width="2"/>
</mask>
<g mask="url(#mask0_47_68)">
<g opacity="0.05">
<path d="M469.954 105L403.237 105L264 250H330.718L469.954 105Z" fill="#D9D9D9"/>
<path d="M556.977 105L490.26 105L351.023 250H417.74L556.977 105Z" fill="#D9D9D9"/>
<path d="M644 105L577.282 105L438.046 250H504.763L644 105Z" fill="#D9D9D9"/>
</g>
</g>
<g filter="url(#filter1_f_47_68)">
<path d="M60.6 184L64.5002 122L69.1 184L64.4999 251L60.6 184Z" fill="#FF00C7"/>
</g>
<line x1="65" y1="117" x2="65" y2="261" stroke="white" stroke-width="2"/>
<g filter="url(#filter2_f_47_68)">
<path d="M612.831 113.5L616.501 54L620.829 113.5L616.5 172L612.831 113.5Z" fill="#50C5FB"/>
</g>
<line x1="616.5" y1="57" x2="616.5" y2="171" stroke="white" stroke-width="2"/>
<defs>
<filter id="filter0_b_47_68" x="60" y="13" width="561.5" height="317" filterUnits="userSpaceOnUse" color-interpolation-filters="sRGB">
<feFlood flood-opacity="0" result="BackgroundImageFix"/>
<feGaussianBlur in="BackgroundImageFix" stdDeviation="2"/>
<feComposite in2="SourceAlpha" operator="in" result="effect1_backgroundBlur_47_68"/>
<feBlend mode="normal" in="SourceGraphic" in2="effect1_backgroundBlur_47_68" result="shape"/>
</filter>
<filter id="filter1_f_47_68" x="53.6" y="115" width="22.5" height="143" filterUnits="userSpaceOnUse" color-interpolation-filters="sRGB">
<feFlood flood-opacity="0" result="BackgroundImageFix"/>
<feBlend mode="normal" in="SourceGraphic" in2="BackgroundImageFix" result="shape"/>
<feGaussianBlur stdDeviation="3.5" result="effect1_foregroundBlur_47_68"/>
</filter>
<filter id="filter2_f_47_68" x="605.831" y="47" width="21.9984" height="132" filterUnits="userSpaceOnUse" color-interpolation-filters="sRGB">
<feFlood flood-opacity="0" result="BackgroundImageFix"/>
<feBlend mode="normal" in="SourceGraphic" in2="BackgroundImageFix" result="shape"/>
<feGaussianBlur stdDeviation="3.5" result="effect1_foregroundBlur_47_68"/>
</filter>
<linearGradient id="paint0_linear_47_68" x1="180.5" y1="263" x2="498" y2="122" gradientUnits="userSpaceOnUse">
<stop/>
<stop offset="1" stop-opacity="0"/>
</linearGradient>
<linearGradient id="paint1_linear_47_68" x1="542.5" y1="48" x2="171.5" y2="297.5" gradientUnits="userSpaceOnUse">
<stop stop-color="white"/>
<stop offset="0.467329"/>
<stop offset="1" stop-color="white"/>
</linearGradient>
<linearGradient id="paint2_linear_47_68" x1="180.5" y1="263" x2="498" y2="122" gradientUnits="userSpaceOnUse">
<stop/>
<stop offset="1" stop-opacity="0"/>
</linearGradient>
<linearGradient id="paint3_linear_47_68" x1="542.5" y1="48" x2="171.5" y2="297.5" gradientUnits="userSpaceOnUse">
<stop stop-color="white"/>
<stop offset="0.467329"/>
<stop offset="1" stop-color="white"/>
</linearGradient>
</defs>
</svg>
