<svg viewBox="0 0 1500 790" fill="none" xmlns="http://www.w3.org/2000/svg">
<mask id="path-1-inside-1_4_42" fill="white">
<path d="M0 0H1500V790H0V0Z"/>
</mask>
<path d="M0 0H1500V790H0V0Z" fill="#2A0E24"/>
<path d="M1500 -1H1497.5V1H1500V-1ZM1487.5 -1H1482.5V1H1487.5V-1ZM1472.5 -1H1467.5V1H1472.5V-1ZM1457.5 -1H1452.5V1H1457.5V-1ZM1442.5 -1H1437.5V1H1442.5V-1ZM1427.5 -1H1422.5V1H1427.5V-1ZM1412.5 -1H1407.5V1H1412.5V-1ZM1397.5 -1H1392.5V1H1397.5V-1ZM1382.5 -1H1377.5V1H1382.5V-1ZM1367.5 -1H1362.5V1H1367.5V-1ZM1352.5 -1H1347.5V1H1352.5V-1ZM1337.5 -1H1332.5V1H1337.5V-1ZM1322.5 -1H1317.5V1H1322.5V-1ZM1307.5 -1H1302.5V1H1307.5V-1ZM1292.5 -1H1287.5V1H1292.5V-1ZM1277.5 -1H1272.5V1H1277.5V-1ZM1262.5 -1H1257.5V1H1262.5V-1ZM1247.5 -1H1242.5V1H1247.5V-1ZM1232.5 -1H1227.5V1H1232.5V-1ZM1217.5 -1H1212.5V1H1217.5V-1ZM1202.5 -1H1197.5V1H1202.5V-1ZM1187.5 -1H1182.5V1H1187.5V-1ZM1172.5 -1H1167.5V1H1172.5V-1ZM1157.5 -1H1152.5V1H1157.5V-1ZM1142.5 -1H1137.5V1H1142.5V-1ZM1127.5 -1H1122.5V1H1127.5V-1ZM1112.5 -1H1107.5V1H1112.5V-1ZM1097.5 -1H1092.5V1H1097.5V-1ZM1082.5 -1H1077.5V1H1082.5V-1ZM1067.5 -1H1062.5V1H1067.5V-1ZM1052.5 -1H1047.5V1H1052.5V-1ZM1037.5 -1H1032.5V1H1037.5V-1ZM1022.5 -1H1017.5V1H1022.5V-1ZM1007.5 -1H1002.5V1H1007.5V-1ZM992.5 -1H987.5V1H992.5V-1ZM977.5 -1H972.5V1H977.5V-1ZM962.5 -1H957.5V1H962.5V-1ZM947.5 -1H942.5V1H947.5V-1ZM932.5 -1H927.5V1H932.5V-1ZM917.5 -1H912.5V1H917.5V-1ZM902.5 -1H897.5V1H902.5V-1ZM887.5 -1H882.5V1H887.5V-1ZM872.5 -1H867.5V1H872.5V-1ZM857.5 -1H852.5V1H857.5V-1ZM842.5 -1H837.5V1H842.5V-1ZM827.5 -1H822.5V1H827.5V-1ZM812.5 -1H807.5V1H812.5V-1ZM797.5 -1H792.5V1H797.5V-1ZM782.5 -1H777.5V1H782.5V-1ZM767.5 -1H762.5V1H767.5V-1ZM752.5 -1H747.5V1H752.5V-1ZM737.5 -1H732.5V1H737.5V-1ZM722.5 -1H717.5V1H722.5V-1ZM707.5 -1H702.5V1H707.5V-1ZM692.5 -1H687.5V1H692.5V-1ZM677.5 -1H672.5V1H677.5V-1ZM662.5 -1H657.5V1H662.5V-1ZM647.5 -1H642.5V1H647.5V-1ZM632.5 -1H627.5V1H632.5V-1ZM617.5 -1H612.5V1H617.5V-1ZM602.5 -1H597.5V1H602.5V-1ZM587.5 -1H582.5V1H587.5V-1ZM572.5 -1H567.5V1H572.5V-1ZM557.5 -1H552.5V1H557.5V-1ZM542.5 -1H537.5V1H542.5V-1ZM527.5 -1H522.5V1H527.5V-1ZM512.5 -1H507.5V1H512.5V-1ZM497.5 -1H492.5V1H497.5V-1ZM482.5 -1H477.5V1H482.5V-1ZM467.5 -1H462.5V1H467.5V-1ZM452.5 -1H447.5V1H452.5V-1ZM437.5 -1H432.5V1H437.5V-1ZM422.5 -1H417.5V1H422.5V-1ZM407.5 -1H402.5V1H407.5V-1ZM392.5 -1H387.5V1H392.5V-1ZM377.5 -1H372.5V1H377.5V-1ZM362.5 -1H357.5V1H362.5V-1ZM347.5 -1H342.5V1H347.5V-1ZM332.5 -1H327.5V1H332.5V-1ZM317.5 -1H312.5V1H317.5V-1ZM302.5 -1H297.5V1H302.5V-1ZM287.5 -1H282.5V1H287.5V-1ZM272.5 -1H267.5V1H272.5V-1ZM257.5 -1H252.5V1H257.5V-1ZM242.5 -1H237.5V1H242.5V-1ZM227.5 -1H222.5V1H227.5V-1ZM212.5 -1H207.5V1H212.5V-1ZM197.5 -1H192.5V1H197.5V-1ZM182.5 -1H177.5V1H182.5V-1ZM167.5 -1H162.5V1H167.5V-1ZM152.5 -1H147.5V1H152.5V-1ZM137.5 -1H132.5V1H137.5V-1ZM122.5 -1H117.5V1H122.5V-1ZM107.5 -1H102.5V1H107.5V-1ZM92.5 -1H87.5V1H92.5V-1ZM77.5 -1H72.5V1H77.5V-1ZM62.5 -1H57.5V1H62.5V-1ZM47.5 -1H42.5V1H47.5V-1ZM32.5 -1H27.5V1H32.5V-1ZM17.5 -1H12.5V1H17.5V-1ZM2.5 -1H0V1H2.5V-1ZM1500 -2H1497.5V2H1500V-2ZM1487.5 -2H1482.5V2H1487.5V-2ZM1472.5 -2H1467.5V2H1472.5V-2ZM1457.5 -2H1452.5V2H1457.5V-2ZM1442.5 -2H1437.5V2H1442.5V-2ZM1427.5 -2H1422.5V2H1427.5V-2ZM1412.5 -2H1407.5V2H1412.5V-2ZM1397.5 -2H1392.5V2H1397.5V-2ZM1382.5 -2H1377.5V2H1382.5V-2ZM1367.5 -2H1362.5V2H1367.5V-2ZM1352.5 -2H1347.5V2H1352.5V-2ZM1337.5 -2H1332.5V2H1337.5V-2ZM1322.5 -2H1317.5V2H1322.5V-2ZM1307.5 -2H1302.5V2H1307.5V-2ZM1292.5 -2H1287.5V2H1292.5V-2ZM1277.5 -2H1272.5V2H1277.5V-2ZM1262.5 -2H1257.5V2H1262.5V-2ZM1247.5 -2H1242.5V2H1247.5V-2ZM1232.5 -2H1227.5V2H1232.5V-2ZM1217.5 -2H1212.5V2H1217.5V-2ZM1202.5 -2H1197.5V2H1202.5V-2ZM1187.5 -2H1182.5V2H1187.5V-2ZM1172.5 -2H1167.5V2H1172.5V-2ZM1157.5 -2H1152.5V2H1157.5V-2ZM1142.5 -2H1137.5V2H1142.5V-2ZM1127.5 -2H1122.5V2H1127.5V-2ZM1112.5 -2H1107.5V2H1112.5V-2ZM1097.5 -2H1092.5V2H1097.5V-2ZM1082.5 -2H1077.5V2H1082.5V-2ZM1067.5 -2H1062.5V2H1067.5V-2ZM1052.5 -2H1047.5V2H1052.5V-2ZM1037.5 -2H1032.5V2H1037.5V-2ZM1022.5 -2H1017.5V2H1022.5V-2ZM1007.5 -2H1002.5V2H1007.5V-2ZM992.5 -2H987.5V2H992.5V-2ZM977.5 -2H972.5V2H977.5V-2ZM962.5 -2H957.5V2H962.5V-2ZM947.5 -2H942.5V2H947.5V-2ZM932.5 -2H927.5V2H932.5V-2ZM917.5 -2H912.5V2H917.5V-2ZM902.5 -2H897.5V2H902.5V-2ZM887.5 -2H882.5V2H887.5V-2ZM872.5 -2H867.5V2H872.5V-2ZM857.5 -2H852.5V2H857.5V-2ZM842.5 -2H837.5V2H842.5V-2ZM827.5 -2H822.5V2H827.5V-2ZM812.5 -2H807.5V2H812.5V-2ZM797.5 -2H792.5V2H797.5V-2ZM782.5 -2H777.5V2H782.5V-2ZM767.5 -2H762.5V2H767.5V-2ZM752.5 -2H747.5V2H752.5V-2ZM737.5 -2H732.5V2H737.5V-2ZM722.5 -2H717.5V2H722.5V-2ZM707.5 -2H702.5V2H707.5V-2ZM692.5 -2H687.5V2H692.5V-2ZM677.5 -2H672.5V2H677.5V-2ZM662.5 -2H657.5V2H662.5V-2ZM647.5 -2H642.5V2H647.5V-2ZM632.5 -2H627.5V2H632.5V-2ZM617.5 -2H612.5V2H617.5V-2ZM602.5 -2H597.5V2H602.5V-2ZM587.5 -2H582.5V2H587.5V-2ZM572.5 -2H567.5V2H572.5V-2ZM557.5 -2H552.5V2H557.5V-2ZM542.5 -2H537.5V2H542.5V-2ZM527.5 -2H522.5V2H527.5V-2ZM512.5 -2H507.5V2H512.5V-2ZM497.5 -2H492.5V2H497.5V-2ZM482.5 -2H477.5V2H482.5V-2ZM467.5 -2H462.5V2H467.5V-2ZM452.5 -2H447.5V2H452.5V-2ZM437.5 -2H432.5V2H437.5V-2ZM422.5 -2H417.5V2H422.5V-2ZM407.5 -2H402.5V2H407.5V-2ZM392.5 -2H387.5V2H392.5V-2ZM377.5 -2H372.5V2H377.5V-2ZM362.5 -2H357.5V2H362.5V-2ZM347.5 -2H342.5V2H347.5V-2ZM332.5 -2H327.5V2H332.5V-2ZM317.5 -2H312.5V2H317.5V-2ZM302.5 -2H297.5V2H302.5V-2ZM287.5 -2H282.5V2H287.5V-2ZM272.5 -2H267.5V2H272.5V-2ZM257.5 -2H252.5V2H257.5V-2ZM242.5 -2H237.5V2H242.5V-2ZM227.5 -2H222.5V2H227.5V-2ZM212.5 -2H207.5V2H212.5V-2ZM197.5 -2H192.5V2H197.5V-2ZM182.5 -2H177.5V2H182.5V-2ZM167.5 -2H162.5V2H167.5V-2ZM152.5 -2H147.5V2H152.5V-2ZM137.5 -2H132.5V2H137.5V-2ZM122.5 -2H117.5V2H122.5V-2ZM107.5 -2H102.5V2H107.5V-2ZM92.5 -2H87.5V2H92.5V-2ZM77.5 -2H72.5V2H77.5V-2ZM62.5 -2H57.5V2H62.5V-2ZM47.5 -2H42.5V2H47.5V-2ZM32.5 -2H27.5V2H32.5V-2ZM17.5 -2H12.5V2H17.5V-2ZM2.5 -2H0V2H2.5V-2Z" fill="#DB38B9" mask="url(#path-1-inside-1_4_42)"/>
</svg>
