<svg width="111" height="98" viewBox="0 0 111 98" fill="none" xmlns="http://www.w3.org/2000/svg">
<g opacity="0.3">
<circle cx="25.5" cy="72.5" r="25.5" fill="#D9D9D9"/>
<path d="M28.579 83L27.839 79.448H22.141L21.364 83H15L21.105 59.246H28.986L35.091 83H28.579ZM23.14 74.86H26.84L25.027 66.313L23.14 74.86Z" fill="#979797"/>
</g>
<circle cx="85.5" cy="30.5" r="25.5" fill="#D9D9D9"/>
<path d="M87.433 27.163V23.315C87.433 22.7723 87.1247 22.501 86.508 22.501H83.844V27.977H86.508C87.1247 27.977 87.433 27.7057 87.433 27.163ZM87.433 36.931V33.046C87.433 32.5033 87.1247 32.232 86.508 32.232H83.844V37.745H86.508C87.1247 37.745 87.433 37.4737 87.433 36.931ZM77.48 18.246H88.358C91.984 18.246 93.797 19.7753 93.797 22.834V25.868C93.797 28.014 93.205 29.4077 92.021 30.049C92.7117 30.345 93.1803 30.8013 93.427 31.418C93.6737 32.01 93.797 32.824 93.797 33.86V37.412C93.797 40.4707 91.984 42 88.358 42H77.48V18.246Z" fill="#979797"/>
</svg>
