<svg width="106" height="106" viewBox="0 0 106 106" fill="none" xmlns="http://www.w3.org/2000/svg">
<path d="M101 36H77.2994C76.004 36 74.7591 36.5028 73.827 37.4025L61.6574 49.149C59.6473 51.0892 59.617 54.3001 61.5902 56.2779L73.8148 68.5314C74.7528 69.4716 76.0264 70 77.3545 70H101C103.761 70 106 67.7614 106 65V41C106 38.2386 103.761 36 101 36Z" fill="#9B2D86"/>
<path d="M101 36H77.2994C76.004 36 74.7591 36.5028 73.827 37.4025L61.6574 49.149C59.6473 51.0892 59.617 54.3001 61.5902 56.2779L73.8148 68.5314C74.7528 69.4716 76.0264 70 77.3545 70H101C103.761 70 106 67.7614 106 65V41C106 38.2386 103.761 36 101 36Z" fill="#C8C8C8"/>
<path d="M5 36H28.7006C29.996 36 31.2409 36.5028 32.173 37.4025L44.3426 49.149C46.3527 51.0892 46.383 54.3001 44.4098 56.2779L32.1852 68.5314C31.2472 69.4716 29.9736 70 28.6455 70H5C2.23858 70 0 67.7614 0 65V41C0 38.2386 2.23858 36 5 36Z" fill="#9B2D86"/>
<path d="M5 36H28.7006C29.996 36 31.2409 36.5028 32.173 37.4025L44.3426 49.149C46.3527 51.0892 46.383 54.3001 44.4098 56.2779L32.1852 68.5314C31.2472 69.4716 29.9736 70 28.6455 70H5C2.23858 70 0 67.7614 0 65V41C0 38.2386 2.23858 36 5 36Z" fill="#C8C8C8"/>
<g opacity="0.3">
<path d="M36 5L36 28.7006C36 29.996 36.5028 31.2409 37.4025 32.173L49.149 44.3426C51.0892 46.3527 54.3001 46.383 56.2779 44.4098L68.5314 32.1852C69.4716 31.2472 70 29.9736 70 28.6455L70 5C70 2.23857 67.7614 -1.38834e-06 65 -1.26763e-06L41 -2.18557e-07C38.2386 -9.78513e-08 36 2.23858 36 5Z" fill="#9B2D86"/>
<path d="M36 5L36 28.7006C36 29.996 36.5028 31.2409 37.4025 32.173L49.149 44.3426C51.0892 46.3527 54.3001 46.383 56.2779 44.4098L68.5314 32.1852C69.4716 31.2472 70 29.9736 70 28.6455L70 5C70 2.23857 67.7614 -1.38834e-06 65 -1.26763e-06L41 -2.18557e-07C38.2386 -9.78513e-08 36 2.23858 36 5Z" fill="#E3E3E3"/>
</g>
<g opacity="0.3">
<path d="M36 101L36 77.2994C36 76.004 36.5028 74.7591 37.4025 73.827L49.149 61.6574C51.0892 59.6473 54.3001 59.617 56.2779 61.5902L68.5314 73.8148C69.4716 74.7528 70 76.0264 70 77.3545L70 101C70 103.761 67.7614 106 65 106L41 106C38.2386 106 36 103.761 36 101Z" fill="#9B2D86"/>
<path d="M36 101L36 77.2994C36 76.004 36.5028 74.7591 37.4025 73.827L49.149 61.6574C51.0892 59.6473 54.3001 59.617 56.2779 61.5902L68.5314 73.8148C69.4716 74.7528 70 76.0264 70 77.3545L70 101C70 103.761 67.7614 106 65 106L41 106C38.2386 106 36 103.761 36 101Z" fill="#E3E3E3"/>
</g>
</svg>
