<svg width="18" height="20" viewBox="0 0 18 20" fill="none" xmlns="http://www.w3.org/2000/svg">
<path d="M16.6976 0C16.4496 0.0041665 10.5955 0.136401 8.14921 3.79542L3.84187 11.6157C3.52484 12.187 3.69943 12.9147 4.23737 13.2718L9.56501 16.8727C9.77405 17.0131 10.0141 17.0802 10.2521 17.0802C10.6187 17.0802 10.9819 16.9205 11.2237 16.618L16.8118 9.65944C16.8196 9.65027 16.8268 9.64095 16.8334 9.63096C17.7301 8.29184 18.006 6.69848 17.9999 5.20812C17.9893 2.65781 17.1419 0.410322 17.0851 0.263661C17.0225 0.102834 16.8604 0.0149994 16.6976 0ZM12.4741 4.58315C12.9075 4.58221 13.3458 4.70811 13.7325 4.97294C14.7638 5.67916 15.0379 7.10278 14.3445 8.15315C13.6511 9.20352 12.2534 9.48272 11.2221 8.7765C10.1908 8.07028 9.91669 6.64666 10.6101 5.59629C11.0435 4.93981 11.7519 4.58471 12.4741 4.58315ZM5.17139 7.50376C3.04826 7.55793 1.37863 8.42908 0.0818467 10.1623C-0.0122419 10.2915 -0.0243545 10.4577 0.0410984 10.5993C0.110642 10.741 0.25398 10.8329 0.409431 10.8329H1.12532C1.69804 10.8329 2.43828 10.8911 3.17872 11.1161L5.17139 7.50376ZM14.3917 13.974C13.0172 15.6781 11.6916 17.3198 11.6016 17.4073C12.158 18.2281 12.4692 19.0784 12.6779 19.6533L12.7066 19.7282C12.7598 19.8699 12.8821 19.9743 13.0294 19.9951C13.0499 19.9993 13.0705 19.9992 13.0909 19.9992C13.2177 19.9992 13.3408 19.9406 13.4185 19.8364C14.3349 18.6031 14.7273 17.4076 14.7273 15.8327C14.7273 15.1452 14.5839 14.5157 14.3917 13.974ZM4.26454 14.2882C3.38501 15.7631 2.70586 18.8518 3.99528 19.7526C4.23091 19.9168 4.51108 20 4.83262 20C4.97129 20 5.11785 19.984 5.27126 19.9536C6.53164 19.7015 8.09712 18.4336 8.81955 17.3707L7.97103 16.7962C7.17782 17.5766 5.97468 18.2414 5.26247 17.7556C4.55026 17.2665 4.67979 15.8832 5.0811 14.8407L4.26454 14.2882Z" fill="white"/>
</svg>
