<svg width="106" height="106" viewBox="0 0 106 106" fill="none" xmlns="http://www.w3.org/2000/svg">
<g filter="url(#filter0_b_49_409)">
<circle cx="53" cy="53" r="53" fill="#492542"/>
</g>
<path d="M34.0352 58.44C34.0352 60.1467 33.3818 61 32.0752 61H28.5152V58.84H31.1552C31.5418 58.84 31.7352 58.5667 31.7352 58.02V56.1C31.7352 55.5267 31.5952 55.0467 31.3152 54.66L29.0552 51.64C28.6685 51.1333 28.4752 50.5067 28.4752 49.76V47.8C28.4752 46.08 29.1152 45.22 30.3952 45.22H33.7352V47.4H31.3352C30.9485 47.4 30.7552 47.6733 30.7552 48.22V49.4C30.7552 49.9333 30.9018 50.4 31.1952 50.8L33.4352 53.84C33.8352 54.3867 34.0352 55.02 34.0352 55.74V58.44ZM42.3205 61H39.3405C38.0605 61 37.4205 60.1467 37.4205 58.44V47.8C37.4205 46.08 38.0605 45.22 39.3405 45.22H42.3205V47.4H40.2205C39.8738 47.4 39.7005 47.6467 39.7005 48.14V58.1C39.7005 58.5933 39.8738 58.84 40.2205 58.84H42.3205V61ZM51.765 60.42C51.765 60.66 51.7917 60.8533 51.845 61H49.545C49.4917 60.8933 49.465 60.74 49.465 60.54V55.22C49.465 54.7533 49.265 54.52 48.865 54.52H47.845V61H45.565V46.14C45.565 45.5267 45.865 45.22 46.465 45.22H49.765C51.0583 45.22 51.705 46.08 51.705 47.8V51.74C51.705 52.6067 51.405 53.2 50.805 53.52C51.445 53.84 51.765 54.4667 51.765 55.4V60.42ZM48.865 52.4C49.2517 52.4 49.445 52.1667 49.445 51.7V48.14C49.445 47.6467 49.2783 47.4 48.945 47.4H48.045C47.9117 47.4 47.845 47.4733 47.845 47.62V52.4H48.865ZM58.5353 58.84C58.8686 58.84 59.0353 58.5933 59.0353 58.1V48.14C59.0353 47.6467 58.8686 47.4 58.5353 47.4H57.9353C57.5886 47.4 57.4153 47.6467 57.4153 48.14V58.1C57.4153 58.5933 57.5886 58.84 57.9353 58.84H58.5353ZM61.3353 58.44C61.3353 60.1467 60.682 61 59.3753 61H57.0553C55.7753 61 55.1353 60.1467 55.1353 58.44V47.8C55.1353 46.08 55.7753 45.22 57.0553 45.22H59.3753C60.682 45.22 61.3353 46.08 61.3353 47.8V58.44ZM69.1656 61H65.6056C65.0056 61 64.7056 60.6933 64.7056 60.08V45.22H66.9856V58.62C66.9856 58.7667 67.0523 58.84 67.1856 58.84H69.1656V61ZM76.7828 61H73.2228C72.6228 61 72.3228 60.6933 72.3228 60.08V45.22H74.6028V58.62C74.6028 58.7667 74.6695 58.84 74.8028 58.84H76.7828V61Z" fill="white"/>
<defs>
<filter id="filter0_b_49_409" x="-14" y="-14" width="134" height="134" filterUnits="userSpaceOnUse" color-interpolation-filters="sRGB">
<feFlood flood-opacity="0" result="BackgroundImageFix"/>
<feGaussianBlur in="BackgroundImageFix" stdDeviation="7"/>
<feComposite in2="SourceAlpha" operator="in" result="effect1_backgroundBlur_49_409"/>
<feBlend mode="normal" in="SourceGraphic" in2="effect1_backgroundBlur_49_409" result="shape"/>
</filter>
</defs>
</svg>
