<svg width="14" height="15" viewBox="0 0 14 15" fill="none" xmlns="http://www.w3.org/2000/svg">
<path d="M2.01765 14.5C1.4549 14.5 0.977941 14.3044 0.586765 13.9132C0.195588 13.5221 0 13.0451 0 12.4824C0 11.9196 0.195588 11.4426 0.586765 11.0515C0.977941 10.6603 1.4549 10.4647 2.01765 10.4647C2.58039 10.4647 3.05735 10.6603 3.44853 11.0515C3.83971 11.4426 4.03529 11.9196 4.03529 12.4824C4.03529 13.0451 3.83971 13.5221 3.44853 13.9132C3.05735 14.3044 2.58039 14.5 2.01765 14.5ZM12.1471 14.5C12.1471 12.8255 11.8279 11.2505 11.1897 9.775C10.5515 8.29951 9.68333 7.01274 8.58529 5.91471C7.48726 4.81667 6.20049 3.94853 4.725 3.31029C3.24951 2.67206 1.67451 2.35294 0 2.35294V0.5C1.93529 0.5 3.75049 0.867157 5.44559 1.60147C7.14069 2.33578 8.62304 3.33775 9.89265 4.60735C11.1623 5.87696 12.1642 7.35931 12.8985 9.05441C13.6328 10.7495 14 12.5647 14 14.5H12.1471ZM7.24706 14.5C7.24706 12.3314 6.58137 10.5539 5.25 9.16765C3.91863 7.78137 2.16863 7.08824 0 7.08824V5.23529C1.33137 5.23529 2.55294 5.46863 3.66471 5.93529C4.77647 6.40196 5.73382 7.04706 6.53676 7.87059C7.33971 8.69412 7.96765 9.67206 8.42059 10.8044C8.87353 11.9368 9.1 13.1686 9.1 14.5H7.24706Z" fill="white"/>
</svg>
