<svg width="307" height="163" viewBox="0 0 307 163" fill="none" xmlns="http://www.w3.org/2000/svg">
<g filter="url(#filter0_d_49_903)">
<rect width="303" height="159" fill="#1C1C1C"/>
</g>
<path d="M146.875 59.375H151V63.5H146.875V59.375Z" fill="#00FFC2"/>
<path d="M146.875 55.25H151V59.375H146.875V55.25Z" fill="#00FFC2"/>
<path d="M146.875 51.125H151V55.25H146.875V51.125Z" fill="#00FFC2"/>
<path d="M146.875 47H151V51.125H146.875V47Z" fill="#00FFC2"/>
<path d="M146.875 96.5H151V100.625H146.875V96.5Z" fill="#00FFC2"/>
<path d="M146.875 100.625H151V104.75H146.875V100.625Z" fill="#00FFC2"/>
<path d="M146.875 104.75H151V108.875H146.875V104.75Z" fill="#00FFC2"/>
<path d="M146.875 108.875H151V113H146.875V108.875Z" fill="#00FFC2"/>
<path d="M142.75 59.375H146.875V63.5H142.75V59.375Z" fill="#00FFC2"/>
<path d="M142.75 96.5H146.875V100.625H142.75V96.5Z" fill="#00FFC2"/>
<path d="M151 59.375H155.125V63.5H151V59.375Z" fill="#00FFC2"/>
<path d="M151 55.25H155.125V59.375H151V55.25Z" fill="#00FFC2"/>
<path d="M151 51.125H155.125V55.25H151V51.125Z" fill="#00FFC2"/>
<path d="M151 47H155.125V51.125H151V47Z" fill="#00FFC2"/>
<path d="M151 96.5H155.125V100.625H151V96.5Z" fill="#00FFC2"/>
<path d="M151 100.625H155.125V104.75H151V100.625Z" fill="#00FFC2"/>
<path d="M151 104.75H155.125V108.875H151V104.75Z" fill="#00FFC2"/>
<path d="M151 108.875H155.125V113H151V108.875Z" fill="#00FFC2"/>
<path d="M155.125 59.375H159.25V63.5H155.125V59.375Z" fill="#00FFC2"/>
<path d="M155.125 96.5H159.25V100.625H155.125V96.5Z" fill="#00FFC2"/>
<path d="M171.625 71.75V75.875H167.5V71.75H171.625Z" fill="#00FFC2"/>
<path d="M134.5 75.875V80H130.375V75.875H134.5Z" fill="#00FFC2"/>
<path d="M134.5 71.75V75.875H130.375V71.75H134.5Z" fill="#00FFC2"/>
<path d="M138.625 67.625V71.75H134.5V67.625H138.625Z" fill="#00FFC2"/>
<path d="M142.75 63.5V67.625H138.625V63.5H142.75Z" fill="#00FFC2"/>
<path d="M163.375 67.625V71.75H167.5V67.625H163.375Z" fill="#00FFC2"/>
<path d="M159.25 63.5V67.625H163.375V63.5H159.25Z" fill="#00FFC2"/>
<path d="M138.625 92.375V88.25H134.5V92.375H138.625Z" fill="#00FFC2"/>
<path d="M142.75 96.5V92.375H138.625V96.5H142.75Z" fill="#00FFC2"/>
<path d="M171.625 75.875V80H167.5V75.875H171.625Z" fill="#00FFC2"/>
<path d="M175.75 75.875V80H171.625V75.875H175.75Z" fill="#00FFC2"/>
<path d="M179.875 75.875V80H175.75V75.875H179.875Z" fill="#00FFC2"/>
<path d="M184 75.875V80H179.875V75.875H184Z" fill="#00FFC2"/>
<path d="M171.625 80V84.125H167.5V80H171.625Z" fill="#00FFC2"/>
<path d="M175.75 80V84.125H171.625V80H175.75Z" fill="#00FFC2"/>
<path d="M179.875 80V84.125H175.75V80H179.875Z" fill="#00FFC2"/>
<path d="M184 80V84.125H179.875V80H184Z" fill="#00FFC2"/>
<path d="M171.625 84.125V88.25H167.5V84.125H171.625Z" fill="#00FFC2"/>
<path d="M134.5 80V84.125H130.375V80H134.5Z" fill="#00FFC2"/>
<path d="M126.25 80V84.125H122.125V80H126.25Z" fill="#00FFC2"/>
<path d="M122.125 80V84.125H118L118 80H122.125Z" fill="#00FFC2"/>
<path d="M130.375 80V84.125H126.25V80H130.375Z" fill="#00FFC2"/>
<path d="M126.25 75.875V80H122.125V75.875H126.25Z" fill="#00FFC2"/>
<path d="M122.125 75.875V80H118V75.875H122.125Z" fill="#00FFC2"/>
<path d="M130.375 75.875V80H126.25V75.875H130.375Z" fill="#00FFC2"/>
<path d="M134.5 84.125V88.25H130.375V84.125H134.5Z" fill="#00FFC2"/>
<path d="M163.375 92.375V96.5H159.25V92.375H163.375Z" fill="#00FFC2"/>
<path d="M167.5 88.25V92.375H163.375V88.25H167.5Z" fill="#00FFC2"/>
<path d="M146.875 67.625H151V71.75H146.875V67.625Z" fill="#00FFC2"/>
<path d="M146.875 67.625H151V71.75H146.875V67.625Z" fill="#00FFC2"/>
<path d="M146.875 71.75H151V75.875H146.875V71.75Z" fill="#00FFC2"/>
<path d="M146.875 75.875H151V80H146.875V75.875Z" fill="#00FFC2"/>
<path d="M146.875 80H151V84.125H146.875V80Z" fill="#00FFC2"/>
<path d="M146.875 84.125H151V88.25H146.875V84.125Z" fill="#00FFC2"/>
<path d="M151 84.125H155.125V88.25H151V84.125Z" fill="#00FFC2"/>
<path d="M151 80H155.125V84.125H151V80Z" fill="#00FFC2"/>
<path d="M146.875 88.25H151V92.375H146.875V88.25Z" fill="#00FFC2"/>
<path d="M151 88.25H155.125V92.375H151V88.25Z" fill="#00FFC2"/>
<path d="M151 67.625H155.125V71.75H151V67.625Z" fill="#00FFC2"/>
<path d="M151 71.75H155.125V75.875H151V71.75Z" fill="#00FFC2"/>
<path d="M151 75.875H155.125V80H151V75.875Z" fill="#00FFC2"/>
<path d="M163.375 75.875V80H159.25V75.875H163.375Z" fill="#00FFC2"/>
<path d="M142.75 75.875V80H138.625V75.875H142.75Z" fill="#00FFC2"/>
<path d="M146.875 71.75V75.875H142.75V71.75H146.875Z" fill="#00FFC2"/>
<path d="M146.875 75.875V80H142.75V75.875H146.875Z" fill="#00FFC2"/>
<path d="M146.875 80V84.125H142.75V80H146.875Z" fill="#00FFC2"/>
<path d="M146.875 84.125V88.25H142.75V84.125H146.875Z" fill="#00FFC2"/>
<path d="M159.25 84.125V88.25H155.125V84.125H159.25Z" fill="#00FFC2"/>
<path d="M159.25 71.75V75.875H155.125V71.75H159.25Z" fill="#00FFC2"/>
<path d="M159.25 75.875V80H155.125V75.875H159.25Z" fill="#00FFC2"/>
<path d="M159.25 80V84.125H155.125V80H159.25Z" fill="#00FFC2"/>
<path d="M142.75 80V84.125H138.625V80H142.75Z" fill="#00FFC2"/>
<path d="M163.375 80V84.125H159.25V80H163.375Z" fill="#00FFC2"/>
<defs>
<filter id="filter0_d_49_903" x="0" y="0" width="307" height="163" filterUnits="userSpaceOnUse" color-interpolation-filters="sRGB">
<feFlood flood-opacity="0" result="BackgroundImageFix"/>
<feColorMatrix in="SourceAlpha" type="matrix" values="0 0 0 0 0 0 0 0 0 0 0 0 0 0 0 0 0 0 127 0" result="hardAlpha"/>
<feOffset dx="4" dy="4"/>
<feComposite in2="hardAlpha" operator="out"/>
<feColorMatrix type="matrix" values="0 0 0 0 1 0 0 0 0 1 0 0 0 0 1 0 0 0 1 0"/>
<feBlend mode="normal" in2="BackgroundImageFix" result="effect1_dropShadow_49_903"/>
<feBlend mode="normal" in="SourceGraphic" in2="effect1_dropShadow_49_903" result="shape"/>
</filter>
</defs>
</svg>
