<svg width="18" height="18" viewBox="0 0 18 18" fill="none" xmlns="http://www.w3.org/2000/svg">
<path d="M2.67708 17.875C1.96528 17.875 1.36198 17.6276 0.867188 17.1328C0.372396 16.638 0.125 16.0347 0.125 15.3229C0.125 14.6111 0.372396 14.0078 0.867188 13.513C1.36198 13.0182 1.96528 12.7708 2.67708 12.7708C3.38889 12.7708 3.99219 13.0182 4.48698 13.513C4.98177 14.0078 5.22917 14.6111 5.22917 15.3229C5.22917 16.0347 4.98177 16.638 4.48698 17.1328C3.99219 17.6276 3.38889 17.875 2.67708 17.875ZM15.4896 17.875C15.4896 15.7569 15.0859 13.7648 14.2786 11.8984C13.4714 10.0321 12.3733 8.40451 10.9844 7.01562C9.59549 5.62673 7.96788 4.52864 6.10156 3.72135C4.23524 2.91406 2.24306 2.51041 0.125 2.51041V0.166664C2.57292 0.166664 4.86892 0.631074 7.01302 1.55989C9.15712 2.48871 11.0321 3.75607 12.638 5.36198C14.2439 6.96788 15.5113 8.84288 16.4401 10.987C17.3689 13.1311 17.8333 15.4271 17.8333 17.875H15.4896ZM9.29167 17.875C9.29167 15.1319 8.44965 12.8837 6.76563 11.1302C5.0816 9.37673 2.86806 8.5 0.125 8.5V6.15625C1.80903 6.15625 3.35417 6.45139 4.76042 7.04167C6.16667 7.63194 7.3776 8.44791 8.39323 9.48958C9.40885 10.5312 10.2031 11.7682 10.776 13.2005C11.349 14.6328 11.6354 16.191 11.6354 17.875H9.29167Z" fill="white"/>
</svg>
